<svg width="32" height="32" viewBox="0 0 32 32" fill="none" xmlns="http://www.w3.org/2000/svg">
  <!-- Define the linear gradient -->
  <defs>
    <linearGradient id="backgroundGradient" x1="0%" y1="0%" x2="100%" y2="100%">
      <stop offset="0%" style="stop-color:#439DDF" />
      <stop offset="100%" style="stop-color:#D6645D" />
    </linearGradient>
  </defs>
  <!-- Use the gradient for the rectangle background -->
  <rect width="31.5077" height="32" rx="8" fill="url(#backgroundGradient)"/>
  <path d="M21.6616 16.1389C21.664 17.0921 21.4447 18.0325 21.0216 18.8833C20.5198 19.9029 19.7485 20.7605 18.794 21.36C17.8394 21.9596 16.7394 22.2773 15.6171 22.2778C14.6785 22.2803 13.7527 22.0576 12.9149 21.6278L8.86157 23L10.2127 18.8833C9.78952 18.0325 9.57024 17.0921 9.57268 16.1389C9.57312 14.9991 9.88601 13.8819 10.4763 12.9124C11.0666 11.943 11.911 11.1596 12.9149 10.65C13.7527 10.2202 14.6785 9.99754 15.6171 10H15.9727C17.4549 10.0831 18.8548 10.7185 19.9045 11.7845C20.9542 12.8506 21.5798 14.2724 21.6616 15.7778V16.1389Z" stroke="#EEEEEE" stroke-width="1.2" stroke-linecap="round" stroke-linejoin="round"/>
</svg>
