<svg width="12" height="12" viewBox="0 0 12 12" fill="none" xmlns="http://www.w3.org/2000/svg">
<path d="M4.62143 4.67212L3.92288 7.00159C3.86355 7.19971 3.91775 7.41467 4.06405 7.56079C4.17099 7.66772 4.31472 7.72558 4.46176 7.72558C4.51577 7.72558 4.57016 7.71789 4.62326 7.70178L6.95291 7.00342C7.04208 6.97668 7.12338 6.92834 7.18911 6.86242L11.4602 2.59131C11.5657 2.48584 11.625 2.34265 11.625 2.19361C11.625 2.04456 11.5657 1.90137 11.4602 1.7959L9.82895 0.164796C9.60922 -0.0549319 9.25326 -0.0549319 9.03354 0.164796L4.7626 4.43591C4.69668 4.50183 4.64834 4.58276 4.62143 4.67212ZM5.65835 5.13098L9.43124 1.35791L10.2669 2.19361L6.49404 5.96668L5.30056 6.32446L5.65835 5.13098Z" fill="#9B9DA6"/>
<path d="M11.0625 5.25C10.7518 5.25 10.5 5.50196 10.5 5.8125V9.5625C10.5 10.0796 10.0794 10.5 9.5625 10.5H2.0625C1.54559 10.5 1.125 10.0796 1.125 9.5625V2.0625C1.125 1.54541 1.54559 1.125 2.0625 1.125H5.8125C6.12323 1.125 6.375 0.873045 6.375 0.5625C6.375 0.251955 6.12323 0 5.8125 0H2.0625C0.925234 0 0 0.925414 0 2.0625V9.5625C0 10.6996 0.925234 11.625 2.0625 11.625H9.5625C10.6998 11.625 11.625 10.6996 11.625 9.5625V5.8125C11.625 5.50196 11.3732 5.25 11.0625 5.25Z" fill="#9B9DA6"/>
</svg>
