<svg width="32" height="32" viewBox="0 0 32 32" fill="none" xmlns="http://www.w3.org/2000/svg">
  <rect x="0.261597" width="31.5077" height="32" rx="8" fill="#F9F9F9"/>
  <!-- Define the linear gradient -->
  <defs>
    <linearGradient id="foregroundGradient" x1="0%" y1="0%" x2="100%" y2="100%">
      <stop offset="0%" style="stop-color:#439DDF" />
      <stop offset="100%" style="stop-color:#D6645D" />
    </linearGradient>
    <clipPath id="clip0_1_960">
      <rect width="19.6923" height="20" fill="white" transform="translate(6.16934 6)"/>
    </clipPath>
  </defs>
  <g clip-path="url(#clip0_1_960)">
    <!-- Use the gradient for the foreground shapes -->
    <path d="M16.1706 26.1443C21.4351 26.1443 25.7184 21.6581 25.7184 16.1443C25.7184 10.6306 21.4351 6.14435 16.1706 6.14435C10.9062 6.14435 6.62286 10.6306 6.62286 16.1443C6.62286 21.6581 10.9062 26.1443 16.1706 26.1443Z" fill="url(#foregroundGradient)" fill-opacity="0.3"/>
    <path d="M11.9935 21.1445C12.0842 21.1446 12.1736 21.1228 12.2549 21.0807L17.866 18.2095C17.9853 18.1486 18.0817 18.0476 18.1399 17.9226L20.8831 12.0439C20.9379 11.9269 20.9564 11.795 20.936 11.6665C20.9157 11.538 20.8574 11.4193 20.7695 11.3272C20.6815 11.2351 20.5683 11.1741 20.4456 11.1528C20.3229 11.1314 20.1969 11.1508 20.0853 11.2082L14.4723 14.0814C14.353 14.1423 14.2566 14.2433 14.1984 14.3682L11.457 20.2451C11.4124 20.3404 11.3917 20.446 11.3969 20.552C11.4021 20.6581 11.433 20.7609 11.4867 20.8509C11.5404 20.941 11.6151 21.0152 11.7038 21.0665C11.7924 21.1179 11.8922 21.1447 11.9935 21.1445ZM15.1807 15.1101L19.0481 13.1307L17.1583 17.1814L13.292 19.1595L15.1807 15.1101Z" fill="url(#foregroundGradient)"/>
  </g>
</svg>
