<svg width="32" height="32" viewBox="0 0 32 32" fill="none" xmlns="http://www.w3.org/2000/svg">
  <g opacity="1">
    <rect width="31.5077" height="32" rx="8" fill="#2d2e31"/>
  </g>
  <!-- Define the linear gradient -->
  <defs>
    <linearGradient id="foregroundGradient" x1="0%" y1="0%" x2="100%" y2="100%">
      <stop offset="0%" style="stop-color:#439DDF" />
      <stop offset="100%" style="stop-color:#D6645D" />
    </linearGradient>
    <clipPath id="clip0_1_770">
      <rect width="19.6923" height="20" fill="white" transform="translate(5.90778 6)"/>
    </clipPath>
  </defs>
  <g clip-path="url(#clip0_1_770)">
    <!-- Use the gradient for the foreground shapes -->
    <path d="M15.9091 26.1443C21.1735 26.1443 25.4569 21.6581 25.4569 16.1443C25.4569 10.6306 21.1735 6.14435 15.9091 6.14435C10.6447 6.14435 6.36133 10.6306 6.36133 16.1443C6.36133 21.6581 10.6447 26.1443 15.9091 26.1443Z" fill="url(#foregroundGradient)" fill-opacity="0.3"/>
    <path d="M11.7319 21.1445C11.8226 21.1446 11.912 21.1228 11.9933 21.0807L17.6044 18.2095C17.7237 18.1486 17.8202 18.0476 17.8783 17.9226L20.6215 12.0439C20.6763 11.9269 20.6948 11.795 20.6745 11.6665C20.6541 11.538 20.5959 11.4193 20.5079 11.3272C20.42 11.2351 20.3067 11.1741 20.184 11.1528C20.0613 11.1314 19.9353 11.1508 19.8237 11.2082L14.2108 14.0814C14.0914 14.1423 13.995 14.2433 13.9369 14.3682L11.1955 20.2451C11.1508 20.3404 11.1301 20.446 11.1353 20.552C11.1405 20.6581 11.1714 20.7609 11.2251 20.8509C11.2788 20.941 11.3535 21.0152 11.4422 21.0665C11.5309 21.1179 11.6306 21.1447 11.7319 21.1445ZM14.9191 15.1101L18.7865 13.1307L16.8967 17.1814L13.0304 19.1595L14.9191 15.1101Z" fill="url(#foregroundGradient)"/>
  </g>
</svg>
