<svg width="32" height="32" viewBox="0 0 32 32" fill="none" xmlns="http://www.w3.org/2000/svg">
  <g opacity="0.08">
    <rect width="31.5077" height="32" rx="8" fill="#D9D9D9"/>
  </g>
  <!-- Define the linear gradient -->
  <defs>
    <linearGradient id="shapeGradient" x1="0%" y1="0%" x2="100%" y2="100%">
      <stop offset="0%" style="stop-color:#439DDF" />
      <stop offset="100%" style="stop-color:#D6645D" />
    </linearGradient>
  </defs>
  <!-- Apply the gradient to the shapes -->
  <path d="M25.1631 15.8814L22.5784 13.2564C22.4984 13.1752 22.4034 13.1107 22.2988 13.0668C22.1943 13.0228 22.0822 13.0002 21.969 13.0003C21.8559 13.0003 21.7438 13.023 21.6393 13.067C21.5348 13.111 21.4398 13.1755 21.3598 13.2568C21.2798 13.3381 21.2164 13.4346 21.1731 13.5408C21.1298 13.647 21.1076 13.7608 21.1076 13.8758C21.1077 13.9907 21.13 14.1045 21.1733 14.2107C21.2167 14.3168 21.2802 14.4133 21.3602 14.4945L22.4742 15.625H17.6616C17.4332 15.625 17.214 15.7172 17.0524 15.8813C16.8909 16.0454 16.8001 16.2679 16.8001 16.5C16.8001 16.7321 16.8909 16.9546 17.0524 17.1187C17.214 17.2828 17.4332 17.375 17.6616 17.375H22.4742L21.3602 18.5064C21.2779 18.5871 21.2123 18.6837 21.1672 18.7904C21.122 18.8972 21.0982 19.012 21.0972 19.1282C21.0963 19.2443 21.1181 19.3596 21.1614 19.4671C21.2047 19.5746 21.2687 19.6723 21.3496 19.7545C21.4304 19.8366 21.5266 19.9016 21.6325 19.9456C21.7384 19.9896 21.8518 20.0117 21.9662 20.0107C22.0806 20.0097 22.1937 19.9856 22.2988 19.9397C22.4039 19.8939 22.499 19.8272 22.5784 19.7436L25.1631 17.1186C25.2432 17.0374 25.3067 16.9409 25.3501 16.8346C25.3934 16.7284 25.4157 16.6146 25.4157 16.4996C25.4157 16.3846 25.3934 16.2707 25.3501 16.1645C25.3067 16.0583 25.2432 15.9618 25.1631 15.8805V15.8814Z" fill="url(#shapeGradient)"/>
  <path d="M17.6616 17.375C17.4332 17.375 17.214 17.2828 17.0525 17.1187C16.8909 16.9546 16.8001 16.7321 16.8001 16.5C16.8001 16.2679 16.8909 16.0454 17.0525 15.8813C17.214 15.7172 17.4332 15.625 17.6616 15.625H21.1078V10.375C21.1071 9.67902 20.8346 9.01174 20.35 8.51961C19.8655 8.02748 19.2085 7.75069 18.5232 7.75H11.6309C10.9456 7.75069 10.2886 8.02748 9.80404 8.51961C9.31948 9.01174 9.04695 9.67902 9.04626 10.375V22.625C9.04695 23.321 9.31948 23.9883 9.80404 24.4804C10.2886 24.9725 10.9456 25.2493 11.6309 25.25H18.5232C19.2085 25.2493 19.8655 24.9725 20.35 24.4804C20.8346 23.9883 21.1071 23.321 21.1078 22.625V17.375H17.6616Z" fill="url(#shapeGradient)" fill-opacity="0.6"/>
</svg>
