<svg width="32" height="32" viewBox="0 0 32 32" fill="none" xmlns="http://www.w3.org/2000/svg">
  <rect x="0.261597" width="31.5077" height="32" rx="8" fill="#F9F9F9"/>
  <!-- Define the linear gradient -->
  <defs>
    <linearGradient id="shapeGradient" x1="0%" y1="0%" x2="100%" y2="100%">
      <stop offset="0%" style="stop-color:#439DDF" />
      <stop offset="100%" style="stop-color:#D6645D" />
    </linearGradient>
  </defs>
  <!-- Apply the gradient to the shapes -->
  <path d="M25.4246 15.8814L22.84 13.2564C22.7599 13.1752 22.6649 13.1107 22.5604 13.0668C22.4558 13.0228 22.3437 13.0002 22.2306 13.0003C22.1174 13.0003 22.0054 13.023 21.9008 13.067C21.7963 13.111 21.7013 13.1755 21.6213 13.2568C21.5414 13.3381 21.4779 13.4346 21.4346 13.5408C21.3914 13.647 21.3691 13.7608 21.3692 13.8758C21.3692 13.9907 21.3915 14.1045 21.4349 14.2107C21.4782 14.3168 21.5417 14.4133 21.6218 14.4945L22.7357 15.625H17.9232C17.6947 15.625 17.4756 15.7172 17.314 15.8813C17.1524 16.0454 17.0617 16.2679 17.0617 16.5C17.0617 16.7321 17.1524 16.9546 17.314 17.1187C17.4756 17.2828 17.6947 17.375 17.9232 17.375H22.7357L21.6218 18.5064C21.5395 18.5871 21.4739 18.6837 21.4287 18.7904C21.3836 18.8972 21.3598 19.012 21.3588 19.1282C21.3578 19.2443 21.3796 19.3596 21.4229 19.4671C21.4662 19.5746 21.5302 19.6723 21.6111 19.7545C21.692 19.8366 21.7882 19.9016 21.8941 19.9456C21.9999 19.9896 22.1134 20.0117 22.2278 20.0107C22.3422 20.0097 22.4552 19.9856 22.5603 19.9397C22.6655 19.8939 22.7605 19.8272 22.84 19.7436L25.4246 17.1186C25.5047 17.0374 25.5683 16.9409 25.6116 16.8346C25.655 16.7284 25.6773 16.6146 25.6773 16.4996C25.6773 16.3846 25.655 16.2707 25.6116 16.1645C25.5683 16.0583 25.5047 15.9618 25.4246 15.8805V15.8814Z" fill="url(#shapeGradient)"/>
  <path d="M17.9232 17.375C17.6947 17.375 17.4756 17.2828 17.314 17.1187C17.1524 16.9546 17.0617 16.7321 17.0617 16.5C17.0617 16.2679 17.1524 16.0454 17.314 15.8813C17.4756 15.7172 17.6947 15.625 17.9232 15.625H21.3693V10.375C21.3687 9.67902 21.0961 9.01174 20.6116 8.51961C20.127 8.02748 19.47 7.75069 18.7847 7.75H11.8924C11.2072 7.75069 10.5501 8.02748 10.0656 8.51961C9.58102 9.01174 9.30849 9.67902 9.30781 10.375V22.625C9.30849 23.321 9.58102 23.9883 10.0656 24.4804C10.5501 24.9725 11.2072 25.2493 11.8924 25.25H18.7847C19.47 25.2493 20.127 24.9725 20.6116 24.4804C21.0961 23.9883 21.3687 23.321 21.3693 22.625V17.375H17.9232Z" fill="url(#shapeGradient)" fill-opacity="0.6"/>
</svg>
