<svg width="30" height="32" viewBox="0 0 30 32" fill="none" xmlns="http://www.w3.org/2000/svg">
<path d="M15.24 20.3714C16.2327 20.3703 17.1844 19.9473 17.8863 19.1953C18.5882 18.4432 18.983 17.4236 18.984 16.36V11.0114C18.984 9.94753 18.5895 8.92721 17.8874 8.17492C17.1853 7.42263 16.233 7 15.24 7C14.247 7 13.2947 7.42263 12.5926 8.17492C11.8905 8.92721 11.496 9.94753 11.496 11.0114V16.36C11.497 17.4236 11.8918 18.4432 12.5937 19.1953C13.2956 19.9473 14.2473 20.3703 15.24 20.3714ZM12.744 11.0114C12.744 10.3022 13.007 9.62195 13.4751 9.12042C13.9432 8.6189 14.578 8.33714 15.24 8.33714C15.902 8.33714 16.5368 8.6189 17.0049 9.12042C17.473 9.62195 17.736 10.3022 17.736 11.0114V16.36C17.736 17.0693 17.473 17.7495 17.0049 18.251C16.5368 18.7525 15.902 19.0343 15.24 19.0343C14.578 19.0343 13.9432 18.7525 13.4751 18.251C13.007 17.7495 12.744 17.0693 12.744 16.36V11.0114ZM15.864 23.0123V25.0514C15.864 25.2287 15.7983 25.3988 15.6812 25.5242C15.5642 25.6496 15.4055 25.72 15.24 25.72C15.0745 25.72 14.9158 25.6496 14.7988 25.5242C14.6817 25.3988 14.616 25.2287 14.616 25.0514V23.0123C13.0776 22.8446 11.6518 22.0716 10.6145 20.8428C9.57714 19.6141 9.0019 18.0168 9 16.36C9 16.1827 9.06574 16.0126 9.18277 15.8872C9.29979 15.7619 9.4585 15.6914 9.624 15.6914C9.7895 15.6914 9.94821 15.7619 10.0652 15.8872C10.1823 16.0126 10.248 16.1827 10.248 16.36C10.248 17.7785 10.7739 19.139 11.7101 20.142C12.6463 21.1451 13.916 21.7086 15.24 21.7086C16.564 21.7086 17.8337 21.1451 18.7699 20.142C19.7061 19.139 20.232 17.7785 20.232 16.36C20.232 16.1827 20.2977 16.0126 20.4148 15.8872C20.5318 15.7619 20.6905 15.6914 20.856 15.6914C21.0215 15.6914 21.1802 15.7619 21.2972 15.8872C21.4143 16.0126 21.48 16.1827 21.48 16.36C21.4781 18.0168 20.9029 19.6141 19.8655 20.8428C18.8282 22.0716 17.4024 22.8446 15.864 23.0123Z" fill="#ABABAB"/>
</svg>
