<svg width="32" height="32" viewBox="0 0 32 32" fill="none" xmlns="http://www.w3.org/2000/svg">
<rect width="32" height="32" rx="6" fill="#404450"/>
<path d="M11.4294 9.37498C9.73749 9.71311 8.46312 10.9875 8.12499 12.6794C7.78687 10.9875 6.51249 9.71311 4.82062 9.37498C6.51249 9.03686 7.78687 7.76248 8.12499 6.07061C8.46312 7.76248 9.73749 9.03686 11.4294 9.37498ZM19.8794 9.12936C18.4419 8.17248 18.0562 8.17248 16.6206 9.12936C17.5775 7.69186 17.5775 7.30623 16.6206 5.87061C18.0581 6.82748 18.4437 6.82748 19.8794 5.87061C18.9225 7.30623 18.9225 7.69373 19.8794 9.12936ZM12.3794 19.1294C10.9419 18.1725 10.5562 18.1725 9.12062 19.1294C10.0775 17.6919 10.0775 17.3062 9.12062 15.8706C10.5581 16.8275 10.9437 16.8275 12.3794 15.8706C11.4225 17.3062 11.4225 17.6937 12.3794 19.1294ZM23.0756 14.9506C21.7981 14.0987 21.4506 14.0987 20.175 14.9506C21.0269 13.6731 21.0269 13.3256 20.175 12.05C21.4525 12.9019 21.8 12.9019 23.0756 12.05C22.2237 13.3275 22.2237 13.6725 23.0756 14.9506Z" fill="#EEEEEE"/>
<path d="M13.6007 13.1585L13.1588 13.6005C12.6706 14.0886 12.6706 14.8801 13.1588 15.3683L22.8815 25.091C23.3697 25.5791 24.1611 25.5791 24.6493 25.091L25.0912 24.649C25.5794 24.1609 25.5794 23.3694 25.0912 22.8813L15.3685 13.1585C14.8803 12.6704 14.0889 12.6704 13.6007 13.1585Z" fill="#EEEEEE"/>
<path d="M13.1585 13.6005L13.6005 13.1585C13.8349 12.9241 14.1528 12.7924 14.4844 12.7924C14.8159 12.7924 15.1338 12.9241 15.3683 13.1585L16.6941 14.4844L14.4844 16.6941L13.1585 15.3683C12.9241 15.1338 12.7924 14.8159 12.7924 14.4844C12.7924 14.1529 12.9241 13.8349 13.1585 13.6005Z" fill="#EEEEEE"/>
</svg>
