<svg width="32" height="32" viewBox="0 0 32 32" fill="none" xmlns="http://www.w3.org/2000/svg">
  <g opacity="1">
    <rect width="32" height="32" rx="8" fill="#2d2e31"/>
  </g>
  <!-- Define the linear gradient -->
  <defs>
    <linearGradient id="foregroundGradient" x1="0%" y1="0%" x2="100%" y2="100%">
      <stop offset="0%" style="stop-color:#439DDF" />
      <stop offset="100%" style="stop-color:#D6645D" />
    </linearGradient>
    <clipPath id="clip0_1_754">
      <rect width="20" height="19" fill="white" transform="translate(26 6) rotate(90)"/>
    </clipPath>
  </defs>
  <g clip-path="url(#clip0_1_754)">
    <!-- Use the gradient for the foreground shapes -->
    <path d="M26 19.0307L26 12.9696C26.0013 12.2756 25.8137 11.5934 25.456 10.9917C25.0983 10.39 24.5832 9.89005 23.9624 9.54202L18.5346 6.52574C17.916 6.18028 17.2143 5.99841 16.5 5.99841C15.7857 5.99841 15.0839 6.18028 14.4653 6.52574L9.03759 9.55345C8.41676 9.90147 7.90161 10.4015 7.54392 11.0031C7.18624 11.6048 6.99864 12.287 6.99997 12.981L6.99997 19.0307C6.99743 19.725 7.18453 20.4076 7.54233 21.0095C7.90013 21.6114 8.41595 22.1112 9.03759 22.4583L14.4653 25.4917C15.0849 25.8344 15.7862 26.0147 16.5 26.0147C17.2137 26.0147 17.9151 25.8344 18.5346 25.4917L23.9624 22.4412C24.584 22.0941 25.0998 21.5943 25.4576 20.9924C25.8154 20.3905 26.0025 19.7079 26 19.0136L26 19.0307Z" fill="url(#foregroundGradient)" fill-opacity="0.3"/>
    <path d="M12.788 15.9972C12.788 17.9785 14.4486 19.5847 16.497 19.5847C18.5455 19.5847 20.2061 17.9785 20.2061 15.9972C20.2061 14.0158 18.5455 12.4096 16.497 12.4096C14.4486 12.4096 12.788 14.0158 12.788 15.9972Z" fill="url(#foregroundGradient)"/>
  </g>
</svg>
