<svg width="33" height="32" viewBox="0 0 33 32" fill="none" xmlns="http://www.w3.org/2000/svg">
  <rect x="0.261597" width="32" height="32" rx="8" fill="#F9F9F9"/>
  <!-- Define the linear gradient -->
  <defs>
    <linearGradient id="foregroundGradient" x1="0%" y1="0%" x2="100%" y2="100%">
      <stop offset="0%" style="stop-color:#439DDF" />
      <stop offset="100%" style="stop-color:#D6645D" />
    </linearGradient>
    <clipPath id="clip0_1_953">
      <rect width="20" height="19" fill="white" transform="translate(26.2616 6) rotate(90)"/>
    </clipPath>
  </defs>
  <g clip-path="url(#clip0_1_953)">
    <!-- Use the gradient for the foreground shapes -->
    <path d="M26.2616 19.0307L26.2616 12.9696C26.2629 12.2756 26.0753 11.5934 25.7176 10.9917C25.36 10.39 24.8448 9.89005 24.224 9.54202L18.7963 6.52574C18.1776 6.18028 17.4759 5.99841 16.7616 5.99841C16.0473 5.99841 15.3455 6.18028 14.7269 6.52574L9.29921 9.55345C8.67838 9.90147 8.16322 10.4015 7.80554 11.0031C7.44786 11.6048 7.26026 12.287 7.26159 12.981L7.26159 19.0307C7.25905 19.725 7.44615 20.4076 7.80395 21.0095C8.16175 21.6114 8.67757 22.1112 9.29921 22.4583L14.7269 25.4917C15.3465 25.8344 16.0479 26.0147 16.7616 26.0147C17.4753 26.0147 18.1767 25.8344 18.7963 25.4917L24.224 22.4412C24.8456 22.0941 25.3614 21.5943 25.7192 20.9924C26.077 20.3905 26.2641 19.7079 26.2616 19.0136L26.2616 19.0307Z" fill="url(#foregroundGradient)" fill-opacity="0.3"/>
    <path d="M13.0496 15.9972C13.0496 17.9785 14.7102 19.5847 16.7586 19.5847C18.8071 19.5847 20.4677 17.9785 20.4677 15.9972C20.4677 14.0158 18.8071 12.4096 16.7586 12.4096C14.7102 12.4096 13.0496 14.0158 13.0496 15.9972Z" fill="url(#foregroundGradient)"/>
  </g>
</svg>
